<svg width="29" height="28" viewBox="0 0 29 28" fill="none" xmlns="http://www.w3.org/2000/svg">
<g filter="url(#filter0_d_314_74)">
<path d="M24 13.4955L21.7818 10.9718L22.0909 7.63115L18.8091 6.88677L17.0909 4L14 5.32537L10.9091 4L9.19091 6.88677L5.90909 7.62207L6.21818 10.9627L4 13.4955L6.21818 16.0191L5.90909 19.3688L9.19091 20.1132L10.9091 23L14 21.6656L17.0909 22.9909L18.8091 20.1042L22.0909 19.3598L21.7818 16.0191L24 13.4955ZM12.1818 18.0344L8.54545 14.4032L9.82727 13.1233L12.1818 15.4654L18.1727 9.48304L19.4545 10.7721L12.1818 18.0344Z" fill="#405EFF"/>
</g>
<defs>
<filter id="filter0_d_314_74" x="0.5" y="0.5" width="28" height="27" filterUnits="userSpaceOnUse" color-interpolation-filters="sRGB">
<feFlood flood-opacity="0" result="BackgroundImageFix"/>
<feColorMatrix in="SourceAlpha" type="matrix" values="0 0 0 0 0 0 0 0 0 0 0 0 0 0 0 0 0 0 127 0" result="hardAlpha"/>
<feOffset dx="0.5" dy="0.5"/>
<feGaussianBlur stdDeviation="2"/>
<feComposite in2="hardAlpha" operator="out"/>
<feColorMatrix type="matrix" values="0 0 0 0 0 0 0 0 0 0 0 0 0 0 0 0 0 0 0.19 0"/>
<feBlend mode="normal" in2="BackgroundImageFix" result="effect1_dropShadow_314_74"/>
<feBlend mode="normal" in="SourceGraphic" in2="effect1_dropShadow_314_74" result="shape"/>
</filter>
</defs>
</svg>
