<svg width="55" height="55" viewBox="0 0 55 55" fill="none" xmlns="http://www.w3.org/2000/svg">
<path d="M48.8889 0H6.11111C2.75 0 0 2.75 0 6.11111V48.8889C0 52.25 2.75 55 6.11111 55H48.8889C52.25 55 55 52.25 55 48.8889V6.11111C55 2.75 52.25 0 48.8889 0ZM15.2778 42.7778C13.5972 42.7778 12.2222 41.4028 12.2222 39.7222V24.4444C12.2222 22.7639 13.5972 21.3889 15.2778 21.3889C16.9583 21.3889 18.3333 22.7639 18.3333 24.4444V39.7222C18.3333 41.4028 16.9583 42.7778 15.2778 42.7778ZM27.5 42.7778C25.8194 42.7778 24.4444 41.4028 24.4444 39.7222V15.2778C24.4444 13.5972 25.8194 12.2222 27.5 12.2222C29.1806 12.2222 30.5556 13.5972 30.5556 15.2778V39.7222C30.5556 41.4028 29.1806 42.7778 27.5 42.7778ZM39.7222 42.7778C38.0417 42.7778 36.6667 41.4028 36.6667 39.7222V33.6111C36.6667 31.9306 38.0417 30.5556 39.7222 30.5556C41.4028 30.5556 42.7778 31.9306 42.7778 33.6111V39.7222C42.7778 41.4028 41.4028 42.7778 39.7222 42.7778Z" fill="#035B71"/>
</svg>
